<?xml version="1.0" encoding="UTF-8"?><svg id="a" xmlns="http://www.w3.org/2000/svg" viewBox="0 0 796.2 356.78"><polygon points="56.08 134.68 28.11 122.21 11.86 99.53 5.06 74.96 11.48 58.33 25.47 51.53 48.14 54.69 67.29 61.6 85.94 24.32 101.81 4.66 122.98 6.55 136.21 13.36 157.98 4.66 174.38 8.82 187.79 31.5 194.79 67.02 220.11 57.95 237.12 59.47 248.08 66.27 248.08 90.46 231.83 116.16 200.84 131.56 171.73 134.68 155.1 131.56 130.83 139.59 112.11 141.48 100.68 125.99 84.31 122.03 74.98 129.46 59.48 137.47 56.08 134.68" style="fill:#d37f1c;"/><polygon points="43.53 255.26 24.71 245.42 20.17 234.08 22.82 222.67 15.26 199.37 15.26 183.43 17.72 165.67 35.67 150.9 43.53 145.8 67.29 137.47 84.31 125.99 97.28 125.99 108.42 134.3 114.28 141.1 130.83 139.59 127.18 154.71 116.55 172.34 110.13 201.2 104.46 214.8 96.52 222.67 89.05 229.17 92.36 232.95 89.05 244.28 67.29 255.26 43.53 255.26" style="fill:#fff;"/><polygon points="108.42 302.88 83.22 324.43 62.83 313.85 42.44 278.5 33.58 251.28 69.92 255.66 83.22 283.04 87.97 293.24 108.42 302.88" style="fill:#3c3b63;"/><path d="M198.19,60.77c4.54-1.28,8.69-3.87,13.21-5.28,43.74-13.62,54.13,27.07,29.81,55.81-16.39,19.37-47.69,28.79-72.57,27.52-3.97-.2-10.46-2.23-13.91-2.01-1.01.06-18.76,5.34-19.36,6.17-.38.53-1.95,8.14-3.01,10.48-2.63,5.8-7.98,11.41-10.98,17.02-9.48,17.7-2.54,33.33-18.23,51.77-1.48,1.74-6.53,5.39-6.8,6.2-.9,2.63.29,7.26-.39,10.61-1.93,9.54-11.56,15.72-20.78,15.73,2.41,15.73,11.47,32.05,26.12,39.38,3.43,1.72,13.59,3.62,13.95,7.13.48,4.59-5.04,2.79-5.08,6.47h-.97c-.4-2.75-7.11-3.48-10.39-5.12-9.31-4.64-17.58-13.31-22.8-22.2-1.45-2.47-10.1-20.58-8.84-21.67.53-.46,3.33.97,3.01-.99-11.22,1.83-21.92,1.05-32.99-1-.08,1.65,1.91.84,2.82,2.66,2.95,5.95,4.07,18.42,7.68,26.33,8.33,18.3,23.96,30.29,43.04,35.94-.12,16.03-24.74-1.47-30.55-6.44-16.9-14.43-26.21-37.71-27.98-59.51h3.98c-12.08-3.32-20.78-12.05-18.9-25.42.35-2.47,2.91-6.67,2.7-7.91-.26-1.5-5.4-9.83-6.51-13.46-8.97-29.33,2.91-58.92,32.92-68.51,1.03-.33,8.15-.54,5.8-2.69-.54-.49-11.24-3.62-13.68-4.83C16.91,122.13-2.64,97.8.29,72.38c3.95-34.23,43.33-28.68,65.33-15.64C76.76,32.18,84.59-8.28,120.96,1.49c4.84,1.3,12.7,6.5,16.12,6.81,2.74.25,11.23-5.92,16.6-6.53,35.19-4.03,39.84,32.86,44.51,59h0ZM127.18,13.78C101.99,0,91.86,17.15,82.72,37.8c-2.98,6.74-10.49,25.38-11.11,31.91-.24,2.53,9.86,6.94,12.3,7.83,15.73,5.77,37.13,6.98,53.82,6.27,6.55-.28,25.07-1.56,30.5-3.5,5.93-2.11,14.58-12.23,21.48-14.53,2.01-3.2-5.64-29.46-7.51-34.53-4.27-11.56-10.72-23.48-25.28-21.24-10.86,1.67-30.16,19.12-40.66,12.18-8.01-5.3,9.7-4.68,10.92-8.41h0ZM125.18,113.78c-17.07.5-34.35,0-50.52-5.99-12.12-4.49-17.72-7.35-16.2-21.25.45-4.16,5.11-17.92,4.58-20.09-1.18-4.82-26.11-11.64-31.34-11.75-28.39-.63-25.48,30.79-14.33,48.39,8.37,13.21,27.29,25.89,42.77,28.23,9.74,1.47,11.6-4.19,19.54-7.56s11.46-3.45,19.31-1.29c2.7.74,6,3.5,8.46,3.13,4.12-.62,14.58-8.59,17.74-11.82h-.01ZM172.19,129.76c27.7,1.47,67.67-14.19,72.55-44.94,5.4-34.07-28.69-23.3-46.57-13.57-31.11,16.92-54.32,45.92-85.98,61.54-.46.61,1.22,4.45,2.43,4.64,1.86.3,11.08-1.46,13.77-1.96,25-4.66,47.47-17.65,71.31-25.78,5.23-.02,3.92,4.49.42,6.51l-27.93,13.56h0ZM71.18,140.76c13.25,2.86,19.52,13.96,20.9,26.62.19,1.7-2.33,6.33,1.75,4.56,11.23-4.85,17.6-26.01,9.87-36.2-6.68-8.8-15.71-7.16-24.45-2.39-1.44.79-9.56,5.75-8.08,7.41h.01ZM127.18,144.78l-12.06,1.43c-1.4,10.5-4.47,23.84-14.24,29.76-3.36,2.04-8.47,2.45-10.27,3.73-1.42,1.01-3.21,5.93-4.9,8.1-2.51,3.21-10.35,7.83-11.08,8.99-.67,1.07,2.05,17.38-3.05,18.89-5.43,1.62-2.26-6.84-2.31-9.41-.06-2.95-1.06-5.59-1.1-8.5-9.26,4.03-16.24,8.22-25.49,1-3.28-2.56-12.14-17.46-6.98-18.99,3.7-1.1,6.51,7.07,8.48,9.49,9.02,11.13,19.99,5.58,21.78-7.26,2.39-17.15-23.54-31.96-36.8-21.76-19.13,14.7-12.71,57.02,7.7,69.34,2.49,1.5,9.08,3.48,10.1,4.41s1.1,4.45-.44,4.82c-6.14,1.49-16.54-4.68-20.85-9.03-5.11,6.95,3.44,14.84,9.5,17.48,14.32,6.25,51.8,6.13,54-14.5-3.62,1.39-11.26-1.37-8.1-5.35.41-.52,8.82-2.88,12.01-5.25,15.61-11.57,14.31-27.29,17.19-43.81,2.24-12.79,12.8-21.65,16.89-33.6l.02.02ZM71.18,188.76c5-.41,10.27-7.31,11.72-11.77,5.94-18.36-7.75-32.53-26.1-31.09-1.56.12-12.16,2.44-12.62,2.89-1.69,1.67.28,1.69,1.49,1.97,19.19,4.34,31.58,17.74,25.5,38.01h.01Z"/><path d="M217.61,249.27h-24.44c-1.49,1.33-1.79,3.1-2.01,4.98-1.94,17.07,1.89,37.14-.48,54.52-.92,1.67-2.26,1.82-3.96,2.04-4.04.52-20.31.63-24.05-.05-3.03-.55-3.5-3.79-3.55-6.45,2.87-44.04-3.66-92.59,0-136.09.13-1.55.17-4.12,1.28-5.22,1.66-1.66,22.75-1.74,26.31-1.28,1.7.22,3.03.38,3.96,2.04l.45,52.55c.11,3.23,1.56,4.11,4.5,4.5,4.58.6,12.96.82,21.39.78"/><path d="M215.5,249.27h24.44c1.49,1.33,1.79,3.1,2.01,4.98,1.94,17.07-1.89,37.14.48,54.52.92,1.67,2.26,1.82,3.96,2.04,4.04.52,20.31.63,24.05-.05,3.03-.55,3.5-3.79,3.55-6.45-2.87-44.04,3.66-92.59,0-136.09-.13-1.55-.17-4.12-1.28-5.22-1.66-1.66-22.75-1.74-26.31-1.28-1.7.22-3.03.38-3.96,2.04l-.45,52.55c-.11,3.23-1.56,4.11-4.5,4.5-4.58.6-12.96.82-21.39.78"/><path d="M449.18,274.77l2.24-1.26,17.44-68.56c.91-3.53,3.41-4.81,6.8-5.2,4.88-.56,21.83-1.04,24.4,2.64l18.63,71.39,2.48-.71,15.56-71.25c2.61-3.55,23.5-2.33,28.31-.9,1.7,2.72-3.11,18.97-4.14,23.07-5.8,23.03-12.09,47.48-18.77,70.23-.69,2.35-4.2,14.3-4.93,15.07-1.28,1.35-3.72,1.38-5.46,1.54-5.75.52-18.51.66-24.1,0-1.1-.13-2.19-.03-2.98-1.02l-18.98-67.04-2.48,2.52-16.95,62.05c-.4,1.08-.98,2.42-2.05,2.95-1.73.85-25.19.93-28.57.54-4.22-.49-5.24-6.02-6.38-9.62-6.47-20.33-12.42-44.37-17.78-65.22-2.91-11.33-6.91-23.5-7.14-35.07.92-1.48,24.4-1.81,26.86-.64.81.38,1.38,1.38,1.88,2.12,5.93,23.97,11.01,48.32,16.12,72.39v-.02Z"/><path d="M650.18,159.27c.1-.56,1.13-2.23,1.68-2.57,2.41-1.49,24.25-1.52,26.65,0,.98.62,1.17,1.75,1.42,2.77l.3,145.86c.14,3.64-.96,5.02-4.51,5.49-2.73.36-20.04.4-21.88-.21-3.77-1.26-1.69-9.3-4.18-9.83-7.17,5.9-12.46,10.41-22.09,11.89-44.39,6.83-60.73-32.52-55.27-70.27,4.27-29.5,27.35-50.08,57.93-43.18,9.09,2.05,12.26,7.02,19.94,10.56v-50.5h.01ZM620.92,223.01c-20.46,3.49-21.88,35.89-15.51,51.04,7.18,17.08,31.7,17.45,40.97,2.42,5.57-9.03,5.09-31.67.85-41.24s-15.96-13.98-26.31-12.22h0Z"/><path d="M698.18,202.27c.09-.33,1.55-1.77,2.02-1.98,2.34-1.1,23.2-.93,25.32.41,1.54.97,1.56,3.8,1.71,5.54,1.36,16.13-3.45,59.65,1.79,71.22,5.44,12.03,23.15,12.51,31.82,3.97,1.27-1.25,6.36-8.83,6.36-10.14v-69c0-.75,2.43-2.26,3.53-2.47,3.15-.6,21.88-.38,23.9,1.05.92.65,1.53,1.22,1.57,2.43l-.02,105.99c-3.47,42.41-46.21,56.42-81.97,42-8.47-3.42-13.73-5.45-10.23-15.19,5.81-16.16,7.97-10.25,18.68-6.26,24.16,8.99,47.62-.72,44.52-29.03-3.63-.93-2.97,1.95-4.93,3.55-18.88,15.37-50.6,10.93-60.55-12.56-.83-1.96-3.51-9.96-3.51-11.49v-78.04Z"/><path d="M379.6,304.19c-14.2,10.86-39.09,11.53-55.69,5.35-45.16-16.8-42.25-101.13,8.22-110.33,47.15-8.59,74.44,24.72,67.93,69.93-2.09,14.53-8.9,26.2-20.46,35.04h0ZM341.94,223.03c-19.81,2.9-20.69,28.7-18.78,44.26.85,6.96,7.45,16.4,14.21,18.79,17.45,6.15,30.83-4.33,32.69-21.94,2.06-19.55-3.08-44.78-28.12-41.11Z"/><path d="M127.18,13.78c-1.22,3.73-18.93,3.11-10.92,8.41,10.5,6.94,29.8-10.51,40.66-12.18,14.56-2.24,21.01,9.68,25.28,21.24,1.87,5.07,9.52,31.34,7.51,34.53-6.9,2.3-15.55,12.42-21.48,14.53-5.43,1.93-23.95,3.22-30.5,3.5-16.69.71-38.09-.49-53.82-6.27-2.44-.9-12.54-5.3-12.3-7.83.62-6.53,8.12-25.16,11.11-31.91C91.86,17.15,102,0,127.18,13.78Z" style="fill:#d37f1c;"/></svg>